<svg width="160" height="160" viewBox="0 0 160 160" fill="none" xmlns="http://www.w3.org/2000/svg">
<g filter="url(#filter0_d)">
<rect x="30" y="25" width="100" height="100" rx="25" fill="url(#paint0_linear)"/>
</g>
<path d="M100.455 50H59.5455C57.0397 50 55 52.0385 55 54.5455V95.4545C55 97.9614 57.0397 100 59.5455 100H100.455C102.96 100 105 97.9615 105 95.4545V54.5455C105 52.0385 102.96 50 100.455 50ZM69.7727 54.5455C70.4003 54.5455 70.9091 55.0542 70.9091 55.6819C70.9091 56.3095 70.4003 56.8183 69.7727 56.8183C69.1452 56.8183 68.6363 56.3094 68.6363 55.6818C68.6363 55.0541 69.1452 54.5455 69.7727 54.5455ZM65.2273 54.5455C65.8548 54.5455 66.3637 55.0542 66.3637 55.6819C66.3637 56.3094 65.8548 56.8182 65.2273 56.8182C64.5997 56.8182 64.0909 56.3094 64.0909 55.6818C64.0909 55.0541 64.5997 54.5455 65.2273 54.5455ZM60.6818 54.5455C61.3094 54.5455 61.8182 55.0541 61.8182 55.6818C61.8182 56.3094 61.3094 56.8182 60.6818 56.8182C60.0542 56.8182 59.5454 56.3094 59.5454 55.6818C59.5455 55.0541 60.0543 54.5455 60.6818 54.5455ZM100.455 95.4545H59.5455V61.3637H100.455V95.4545Z" fill="white"/>
<path d="M64.0909 88.6428C65.3472 88.6428 66.3703 87.6196 66.3703 86.3634C66.3703 85.5433 65.9111 84.8551 65.2586 84.4535C65.4674 80.8352 67.3499 74.2143 78.0949 73.9018C78.4975 74.55 79.1831 75.0063 80.0001 75.0063C81.2563 75.0063 82.2795 73.9832 82.2795 72.7269C82.2795 71.4707 81.2563 70.4475 80.0001 70.4475C79.1559 70.4475 78.4466 70.9304 78.0526 71.6148C67.4172 71.9269 63.3059 78.2248 62.9805 84.4146C62.2953 84.8083 61.8115 85.5182 61.8115 86.3631C61.8115 87.6196 62.8348 88.6428 64.0909 88.6428Z" fill="white"/>
<path d="M85.3067 89.7083C85.4288 89.7516 85.5552 89.7726 85.6818 89.7726C86.0192 89.7726 86.3499 89.6206 86.5696 89.3465L90.7733 84.0909H97.0455C97.5271 84.0909 97.9577 83.7856 98.1175 83.3307C98.2773 82.8757 98.1331 82.3686 97.7557 82.0667L86.3921 72.9759C86.0481 72.7028 85.5865 72.6485 85.1891 72.8394C84.7962 73.0291 84.5454 73.4264 84.5454 73.8637V88.6365C84.5454 89.1191 84.8495 89.5485 85.3067 89.7083Z" fill="white"/>
<defs>
<filter id="filter0_d" x="0" y="0" width="160" height="160" filterUnits="userSpaceOnUse" color-interpolation-filters="sRGB">
<feFlood flood-opacity="0" result="BackgroundImageFix"/>
<feColorMatrix in="SourceAlpha" type="matrix" values="0 0 0 0 0 0 0 0 0 0 0 0 0 0 0 0 0 0 127 0" result="hardAlpha"/>
<feOffset dy="5"/>
<feGaussianBlur stdDeviation="15"/>
<feColorMatrix type="matrix" values="0 0 0 0 0.34902 0 0 0 0 0.501961 0 0 0 0 1 0 0 0 0.25 0"/>
<feBlend mode="normal" in2="BackgroundImageFix" result="effect1_dropShadow"/>
<feBlend mode="normal" in="SourceGraphic" in2="effect1_dropShadow" result="shape"/>
</filter>
<linearGradient id="paint0_linear" x1="30" y1="25" x2="149.548" y2="62.2276" gradientUnits="userSpaceOnUse">
<stop stop-color="#5E56FF"/>
<stop offset="1" stop-color="#55AAFF"/>
</linearGradient>
</defs>
</svg>
