<svg width="160" height="160" viewBox="0 0 160 160" fill="none" xmlns="http://www.w3.org/2000/svg">
<g filter="url(#filter0_d)">
<rect x="30" y="25" width="100" height="100" rx="25" fill="url(#paint0_linear)"/>
</g>
<path d="M71.1078 95.3991C72.3003 98.1057 74.999 99.9999 78.1316 99.9999C81.2642 99.9999 83.9628 98.1057 85.1554 95.3991H71.1078Z" fill="white"/>
<path d="M78.1311 53.8724C80.1983 53.8724 82.1831 54.2386 84.0251 54.909V54.6812C84.0251 51.5485 81.4865 48.9999 78.3661 48.9999H77.8971C74.7767 48.9999 72.238 51.5485 72.238 54.6812V54.9061C74.079 54.2377 76.0633 53.8724 78.1311 53.8724Z" fill="white"/>
<path fill-rule="evenodd" clip-rule="evenodd" d="M92.7605 76.723C86.3596 76.4195 81.2632 71.1338 81.2632 64.6578C81.2632 62.1339 82.0374 59.7907 83.3612 57.8528C81.7393 57.2156 79.9751 56.8657 78.1311 56.8657C70.1949 56.8657 63.7383 63.3475 63.7383 71.3149C63.7383 75.7307 63.3038 81.9162 61.2337 86.3072C60.1066 88.6983 58.9808 89.4886 58.8312 89.586C58.2009 89.8784 57.8902 90.5538 58.0351 91.2382C58.1815 91.9294 58.8262 92.4059 59.5301 92.4059H96.7331C97.437 92.4059 98.0816 91.9293 98.228 91.2382C98.373 90.5537 98.0622 89.8784 97.4319 89.586C97.2823 89.4887 96.1566 88.6983 95.0294 86.3072C93.7201 83.5298 93.0651 80.0344 92.7605 76.723Z" fill="white"/>
<circle cx="93.3422" cy="64.6578" r="8.5" fill="white"/>
<defs>
<filter id="filter0_d" x="0" y="0" width="160" height="160" filterUnits="userSpaceOnUse" color-interpolation-filters="sRGB">
<feFlood flood-opacity="0" result="BackgroundImageFix"/>
<feColorMatrix in="SourceAlpha" type="matrix" values="0 0 0 0 0 0 0 0 0 0 0 0 0 0 0 0 0 0 127 0" result="hardAlpha"/>
<feOffset dy="5"/>
<feGaussianBlur stdDeviation="15"/>
<feColorMatrix type="matrix" values="0 0 0 0 0.984314 0 0 0 0 0.635294 0 0 0 0 0.305882 0 0 0 0.25 0"/>
<feBlend mode="normal" in2="BackgroundImageFix" result="effect1_dropShadow"/>
<feBlend mode="normal" in="SourceGraphic" in2="effect1_dropShadow" result="shape"/>
</filter>
<linearGradient id="paint0_linear" x1="30" y1="25" x2="130" y2="125" gradientUnits="userSpaceOnUse">
<stop stop-color="#FBA24E"/>
<stop offset="1" stop-color="#FEE291"/>
</linearGradient>
</defs>
</svg>
