<svg width="160" height="160" viewBox="0 0 160 160" fill="none" xmlns="http://www.w3.org/2000/svg">
<g filter="url(#filter0_d)">
<rect x="30" y="25" width="100" height="100" rx="25" fill="url(#paint0_linear)"/>
</g>
<path d="M104.917 97.8334H103.833V66.4166C103.833 65.8186 103.348 65.3333 102.75 65.3333H96.2499C95.6519 65.3333 95.1665 65.8186 95.1665 66.4166V97.8333H90.8332V79.4166C90.8332 78.8186 90.3478 78.3333 89.7498 78.3333H83.2498C82.6518 78.3333 82.1664 78.8186 82.1664 79.4166V97.8333H77.8331V75.0833C77.8331 74.4853 77.3477 73.9999 76.7497 73.9999H70.2497C69.6517 73.9999 69.1663 74.4853 69.1663 75.0833V97.8333H64.833V85.9166C64.833 85.3186 64.3476 84.8333 63.7496 84.8333H57.25C56.652 84.8333 56.1666 85.3186 56.1666 85.9166V97.8333H55.0834C54.4854 97.8334 54 98.3186 54 98.9166C54 99.5146 54.4854 100 55.0834 100H57.25H63.75H70.25H76.75H83.25H89.75H96.25H102.75H104.917C105.515 100 106 99.5146 106 98.9166C106 98.3186 105.515 97.8334 104.917 97.8334Z" fill="white"/>
<path d="M99.4999 48C97.11 48 95.1665 49.9435 95.1665 52.3334C95.1665 53.135 95.4005 53.876 95.7796 54.5217L88.6881 61.6132C88.0425 61.234 87.3015 61 86.4999 61C85.1414 61 83.941 61.6414 83.1459 62.6229L77.8224 61.104C77.8224 61.0694 77.8332 61.0369 77.8332 61C77.8332 58.6101 75.8897 56.6666 73.4999 56.6666C71.11 56.6666 69.1665 58.6101 69.1665 61C69.1665 61.6305 69.3074 62.2241 69.55 62.7636L62.7791 68.1651C62.1162 67.7491 61.3384 67.5 60.4999 67.5C58.11 67.5 56.1665 69.4435 56.1665 71.8334C56.1665 74.2232 58.11 76.1667 60.4999 76.1667C62.8897 76.1667 64.8332 74.2232 64.8332 71.8334C64.8332 71.0729 64.6187 70.3665 64.2721 69.7447L70.9086 64.4516C71.6345 64.9976 72.525 65.3335 73.5 65.3335C75.0881 65.3335 76.4661 64.4646 77.2201 63.1863L82.2402 64.6185C82.1991 64.8525 82.1666 65.0886 82.1666 65.3335C82.1666 67.7233 84.1101 69.6668 86.5 69.6668C88.8898 69.6668 90.8333 67.7233 90.8333 65.3335C90.8333 64.5318 90.5993 63.7908 90.2202 63.1451L97.3138 56.0515C97.9573 56.4328 98.6983 56.6668 99.5 56.6668C101.89 56.6668 103.833 54.7233 103.833 52.3335C103.833 49.9435 101.89 48 99.4999 48Z" fill="white"/>
<defs>
<filter id="filter0_d" x="0" y="0" width="160" height="160" filterUnits="userSpaceOnUse" color-interpolation-filters="sRGB">
<feFlood flood-opacity="0" result="BackgroundImageFix"/>
<feColorMatrix in="SourceAlpha" type="matrix" values="0 0 0 0 0 0 0 0 0 0 0 0 0 0 0 0 0 0 127 0" result="hardAlpha"/>
<feOffset dy="5"/>
<feGaussianBlur stdDeviation="15"/>
<feColorMatrix type="matrix" values="0 0 0 0 0.384314 0 0 0 0 0.788235 0 0 0 0 0.576471 0 0 0 0.25 0"/>
<feBlend mode="normal" in2="BackgroundImageFix" result="effect1_dropShadow"/>
<feBlend mode="normal" in="SourceGraphic" in2="effect1_dropShadow" result="shape"/>
</filter>
<linearGradient id="paint0_linear" x1="30" y1="25" x2="130" y2="125" gradientUnits="userSpaceOnUse">
<stop stop-color="#62C993"/>
<stop offset="1" stop-color="#C5EF7F"/>
</linearGradient>
</defs>
</svg>
