<svg width="160" height="160" viewBox="0 0 160 160" fill="none" xmlns="http://www.w3.org/2000/svg">
<g filter="url(#filter0_d)">
<rect x="30" y="25" width="100" height="100" rx="25" fill="url(#paint0_linear)"/>
</g>
<path d="M104.51 92.2911L94.5588 82.3395L101.658 78.2388C102.213 77.9184 102.536 77.3094 102.49 76.6705C102.443 76.0314 102.036 75.4749 101.441 75.2377L69.7835 62.6093C69.1629 62.3614 68.4543 62.5074 67.9816 62.9798C67.509 63.4526 67.3631 64.1611 67.6107 64.7817L80.2371 96.4433C80.4745 97.0383 81.031 97.4456 81.6701 97.4917C82.3092 97.5382 82.9183 97.2152 83.2386 96.6603L87.3389 89.5608L97.2895 99.5124C97.603 99.8261 98.0286 100.002 98.4719 100.002C98.9156 100.002 99.3409 99.8261 99.6544 99.5124L104.51 94.6559C105.163 94.0028 105.163 92.9441 104.51 92.2911Z" fill="white"/>
<path d="M62.3398 54.9735C61.6868 54.3209 60.6284 54.3208 59.975 54.9735C59.3221 55.6265 59.3221 56.6852 59.975 57.3383L63.6903 61.0536C64.0167 61.38 64.4445 61.5433 64.8726 61.5433C65.3004 61.5433 65.7284 61.38 66.0548 61.0536C66.7078 60.4006 66.7078 59.342 66.0548 58.6889L62.3398 54.9735Z" fill="white"/>
<path d="M63.5986 66.5337C63.5986 65.6105 62.85 64.8617 61.9264 64.8617H56.6722C55.7488 64.8617 55 65.6103 55 66.5337C55 67.4571 55.7487 68.206 56.6722 68.206H61.9264C62.85 68.2058 63.5986 67.4571 63.5986 66.5337Z" fill="white"/>
<path d="M62.9208 71.6949L59.205 75.4105C58.5521 76.0636 58.5521 77.1223 59.205 77.7752C59.5316 78.1016 59.9595 78.2649 60.3873 78.2649C60.8151 78.2649 61.2432 78.1016 61.5696 77.7752L65.2853 74.0597C65.9383 73.4067 65.9383 72.3479 65.2853 71.6949C64.6324 71.0424 63.5742 71.0422 62.9208 71.6949Z" fill="white"/>
<path d="M71.5346 58.5969C72.458 58.5969 73.2068 57.8482 73.2068 56.9247V51.67C73.2068 50.7466 72.4582 49.9979 71.5346 49.9979C70.6114 49.9979 69.8625 50.7464 69.8625 51.67V56.9248C69.8625 57.8482 70.6112 58.5969 71.5346 58.5969Z" fill="white"/>
<path d="M77.8774 60.7736C78.3055 60.7736 78.7333 60.6103 79.0597 60.2839L82.7749 56.5686C83.4279 55.9155 83.4279 54.8568 82.7749 54.2038C82.1219 53.5511 81.0631 53.5511 80.4102 54.2038L76.6951 57.9192C76.0421 58.5723 76.0421 59.631 76.6951 60.2839C77.0217 60.6103 77.4495 60.7736 77.8774 60.7736Z" fill="white"/>
<defs>
<filter id="filter0_d" x="0" y="0" width="160" height="160" filterUnits="userSpaceOnUse" color-interpolation-filters="sRGB">
<feFlood flood-opacity="0" result="BackgroundImageFix"/>
<feColorMatrix in="SourceAlpha" type="matrix" values="0 0 0 0 0 0 0 0 0 0 0 0 0 0 0 0 0 0 127 0" result="hardAlpha"/>
<feOffset dy="5"/>
<feGaussianBlur stdDeviation="15"/>
<feColorMatrix type="matrix" values="0 0 0 0 0.984314 0 0 0 0 0.34902 0 0 0 0 0.403922 0 0 0 0.25 0"/>
<feBlend mode="normal" in2="BackgroundImageFix" result="effect1_dropShadow"/>
<feBlend mode="normal" in="SourceGraphic" in2="effect1_dropShadow" result="shape"/>
</filter>
<linearGradient id="paint0_linear" x1="30" y1="25" x2="130" y2="125" gradientUnits="userSpaceOnUse">
<stop stop-color="#FB5967"/>
<stop offset="1" stop-color="#F9AF7C"/>
</linearGradient>
</defs>
</svg>
